<svg width="20" height="22" viewBox="0 0 20 22" fill="none" xmlns="http://www.w3.org/2000/svg">
<path d="M20 8.84135V21.3509C20 21.6704 19.6812 22.0001 19.3522 22.0001H14.6221C14.3033 22.0001 14.0874 21.7837 14.0874 21.4643V21.3613C14.0874 18.9912 12.1542 17.157 9.89203 17.157C7.52699 17.157 5.69666 19.0943 5.69666 21.3613V21.4643C5.69666 21.7837 5.48072 22.0001 5.16195 22.0001H0.647814C0.329048 22.0001 0 21.6807 0 21.3509V8.84135C0 7.97577 0.318767 7.22354 0.966582 6.68771L8.17481 0.649303C9.14139 -0.216271 10.653 -0.216271 11.7224 0.649303L18.9306 6.68771C19.6812 7.22354 20 7.97577 20 8.84135Z" fill="#6D6D6D"/>
</svg>
